<?xml version="1.0" encoding="UTF-8" standalone="no"?>
<!-- Created with Inkscape (http://www.inkscape.org/) -->

<svg
   width="136.02704mm"
   height="41.89233mm"
   viewBox="0 0 136.02704 41.89233"
   version="1.1"
   id="svg5"
   inkscape:version="1.1 (c68e22c387, 2021-05-23)"
   sodipodi:docname="iotea-title.svg"
   xmlns:inkscape="http://www.inkscape.org/namespaces/inkscape"
   xmlns:sodipodi="http://sodipodi.sourceforge.net/DTD/sodipodi-0.dtd"
   xmlns="http://www.w3.org/2000/svg"
   xmlns:svg="http://www.w3.org/2000/svg">
  <sodipodi:namedview
     id="namedview7"
     pagecolor="#505050"
     bordercolor="#eeeeee"
     borderopacity="1"
     inkscape:pageshadow="0"
     inkscape:pageopacity="0"
     inkscape:pagecheckerboard="0"
     inkscape:document-units="mm"
     showgrid="false"
     inkscape:zoom="0.77771465"
     inkscape:cx="-91.936034"
     inkscape:cy="43.074925"
     inkscape:window-width="2560"
     inkscape:window-height="1369"
     inkscape:window-x="2552"
     inkscape:window-y="5"
     inkscape:window-maximized="1"
     inkscape:current-layer="text2958"
     fit-margin-top="0"
     fit-margin-left="0"
     fit-margin-right="0"
     fit-margin-bottom="0" />
  <defs
     id="defs2" />
  <g
     inkscape:label="Layer 1"
     inkscape:groupmode="layer"
     id="layer1"
     transform="translate(-43.111256,-148.9672)">
    <path
       d="m 97.468891,162.494 c -0.79378,-0.82402 -1.58756,-1.23607 -2.77827,-1.23607 H 62.938336 v 20.60121 c 0,2.26611 0.793855,4.12018 2.381417,5.7683 1.587637,1.64812 3.373662,2.47214 5.556691,2.47214 h 11.907087 c 2.18296,0 3.96898,-0.82402 5.55662,-2.47214 1.58764,-1.64812 2.38142,-3.50219 2.38142,-5.7683 v -6.18035 h 3.96905 c 1.19071,0 1.98449,-0.41189 2.77827,-1.23607 0.79386,-0.8241 1.19071,-1.64812 1.19071,-2.88419 v -6.18035 c 0,-1.03004 -0.39678,-2.06009 -1.19071,-2.88418 m -10.71638,2.88418 v 6.18035 4.12026 6.18035 c 0,1.23607 -0.39677,2.06009 -1.1907,2.88411 -0.79379,0.8241 -1.58757,1.23607 -2.77828,1.23607 H 70.876444 c -1.190709,0 -1.984565,-0.4119 -2.778345,-1.23607 -0.793781,-0.82402 -1.190709,-1.85407 -1.190709,-2.88411 v -16.48096 h 7.938031 v 2.88419 l -3.572124,2.88411 c -0.396778,0.20634 -0.396778,0.61823 -0.396778,0.8241 v 8.85851 c 0,0.61823 0.396778,1.03005 0.99232,1.03005 h 7.938042 c 0.59554,0 0.99224,-0.4119 0.99224,-1.03005 v -8.85851 c 0,-0.41189 -0.19876,-0.61823 -0.39678,-0.8241 l -3.57205,-2.88411 v -2.88419 h 9.92252 m 7.93811,6.18035 h -3.96905 v -6.18035 h 3.96905 z"
       id="path824"
       style="stroke-width:2.02196;fill:#ffba01;fill-opacity:1"
       sodipodi:nodetypes="cscscsssscscssccccscsscsccccssssssccccccccc" />
    <g
       aria-label="I"
       id="text1862"
       style="font-size:56.4444px;line-height:1.25;letter-spacing:0px;word-spacing:0px;stroke-width:1.44278;fill:#ffba01;fill-opacity:1">
      <path
         d="M 59.316972,190.00514 H 43.111256 v -4.18923 H 48.4856 v -32.65948 h -5.374344 v -4.18923 h 16.205716 v 4.18923 h -5.374344 v 32.65948 h 5.374344 z"
         id="path7793"
         style="fill:#ffba01;fill-opacity:1" />
    </g>
    <g
       aria-label="Tea"
       id="text2958"
       style="font-size:56.4444px;line-height:1.25;letter-spacing:0px;word-spacing:0px;stroke-width:1.48119">
      <path
         d="m 122.55609,153.81789 h -14.66232 v 36.18725 h -5.45703 V 153.81789 H 87.774429 v -4.85069 h 34.781661 z"
         id="path7768"
         style="fill:#ffba01;fill-opacity:1" />
      <path
         d="m 147.36076,175.1499 h -22.6825 q 0,2.83876 0.85439,4.96094 0.85438,2.09461 2.34266,3.44509 1.43316,1.32291 3.38997,1.98437 1.98437,0.66146 4.3546,0.66146 3.14192,0 6.31141,-1.24023 3.19704,-1.2678 4.54752,-2.48047 h 0.27561 v 5.64995 q -2.61827,1.10243 -5.34679,1.84657 -2.72851,0.74414 -5.73263,0.74414 -7.66189,0 -11.96136,-4.13411 -4.29948,-4.16167 -4.29948,-11.796 0,-7.55164 4.10655,-11.98892 4.13411,-4.43728 10.85894,-4.43728 6.22872,0 9.59113,3.63802 3.38998,3.63802 3.38998,10.33528 z m -5.04362,-3.96874 q -0.0276,-4.07899 -2.06706,-6.31142 -2.01193,-2.23242 -6.14604,-2.23242 -4.16167,0 -6.64214,2.45291 -2.45291,2.45291 -2.78364,6.09093 z"
         id="path7770"
         style="fill:#ffba01;fill-opacity:1" />
      <path
         d="m 179.13829,190.00514 h -5.15386 v -3.27973 q -0.68902,0.46854 -1.87413,1.32292 -1.15755,0.82682 -2.25998,1.32292 -1.29535,0.63389 -2.97656,1.0473 -1.6812,0.44098 -3.94119,0.44098 -4.16167,0 -7.05555,-2.75608 -2.89387,-2.75607 -2.89387,-7.02799 0,-3.50021 1.48828,-5.64995 1.51584,-2.1773 4.29947,-3.41753 2.8112,-1.24024 6.75238,-1.68121 3.94119,-0.44097 8.46115,-0.66146 v -0.79926 q 0,-1.76388 -0.6339,-2.92144 -0.60633,-1.15755 -1.76388,-1.81901 -1.10243,-0.63389 -2.64583,-0.85438 -1.54341,-0.22048 -3.22461,-0.22048 -2.0395,0 -4.54752,0.55121 -2.50803,0.52365 -5.18142,1.5434 h -0.27561 v -5.2641 q 1.51584,-0.41341 4.38216,-0.9095 2.86631,-0.4961 5.64995,-0.4961 3.25217,0 5.64995,0.55122 2.42535,0.52365 4.18924,1.81901 1.73632,1.26779 2.64583,3.27972 0.9095,2.01194 0.9095,4.9885 z m -5.15386,-7.5792 v -8.57139 q -2.37022,0.1378 -5.59483,0.41341 -3.19704,0.27561 -5.07118,0.79926 -2.23242,0.6339 -3.61045,1.98437 -1.37804,1.32292 -1.37804,3.66558 0,2.64583 1.59852,3.99631 1.59853,1.32292 4.87825,1.32292 2.72852,0 4.9885,-1.04731 2.25998,-1.07487 4.18923,-2.56315 z"
         id="path7772"
         style="fill:#ffba01;fill-opacity:1" />
    </g>
  </g>
</svg>
